<svg width="196" height="47" viewBox="0 0 196 47" fill="none" xmlns="http://www.w3.org/2000/svg">
<path d="M0.000156246 35.6687V8.83615H33.2633C34.4661 8.83615 35.5456 9.12915 36.5017 9.71514C37.4578 10.3011 38.2134 11.0722 38.7686 12.0283C39.3546 12.9844 39.6476 14.0484 39.6476 15.2204V35.6687H33.6334V15.4518C33.6334 15.2976 33.5717 15.1742 33.4483 15.0817C33.325 14.9583 33.1862 14.8966 33.032 14.8966H23.4555C23.3013 14.8966 23.1625 14.9583 23.0391 15.0817C22.9466 15.1742 22.9004 15.2976 22.9004 15.4518V35.6687H16.7936V15.4518C16.7936 15.2976 16.7319 15.1742 16.6086 15.0817C16.5161 14.9583 16.3927 14.8966 16.2385 14.8966H6.61577C6.46156 14.8966 6.32277 14.9583 6.1994 15.0817C6.10687 15.1742 6.06061 15.2976 6.06061 15.4518V35.6687H0.000156246ZM48.6938 35.6687C47.5218 35.6687 46.4577 35.3757 45.5016 34.7897C44.5455 34.2037 43.7745 33.4327 43.1885 32.4766C42.6025 31.5205 42.3095 30.4564 42.3095 29.2844V15.2204C42.3095 14.0484 42.6025 12.9844 43.1885 12.0283C43.7745 11.0722 44.5455 10.3011 45.5016 9.71514C46.4577 9.12915 47.5218 8.83615 48.6938 8.83615H63.1741C64.3461 8.83615 65.4102 9.12915 66.3663 9.71514C67.3532 10.3011 68.1243 11.0722 68.6794 12.0283C69.2654 12.9844 69.5584 14.0484 69.5584 15.2204V29.2844C69.5584 30.4564 69.2654 31.5205 68.6794 32.4766C68.1243 33.4327 67.3686 34.2037 66.4125 34.7897C65.4564 35.3757 64.377 35.6687 63.1741 35.6687H48.6938ZM48.9251 29.6082H62.9428C63.097 29.6082 63.2204 29.562 63.3129 29.4695C63.4363 29.3461 63.498 29.2073 63.498 29.0531V15.4518C63.498 15.2976 63.4363 15.1742 63.3129 15.0817C63.2204 14.9583 63.097 14.8966 62.9428 14.8966H48.9251C48.7709 14.8966 48.6321 14.9583 48.5087 15.0817C48.4162 15.1742 48.37 15.2976 48.37 15.4518V29.0531C48.37 29.2073 48.4162 29.3461 48.5087 29.4695C48.6321 29.562 48.7709 29.6082 48.9251 29.6082ZM75.5903 46.2629V40.1562H91.7361C91.8903 40.1562 92.0137 40.0945 92.1062 39.9712C92.2296 39.8786 92.2913 39.7553 92.2913 39.6011V35.6687H77.4871C76.3459 35.6687 75.2819 35.3757 74.2949 34.7897C73.3388 34.2037 72.5678 33.4327 71.9818 32.4766C71.3958 31.5205 71.1028 30.4564 71.1028 29.2844V15.2204C71.1028 14.0484 71.3958 12.9844 71.9818 12.0283C72.5678 11.0722 73.3388 10.3011 74.2949 9.71514C75.2819 9.12915 76.3459 8.83615 77.4871 8.83615H92.0137C93.1857 8.83615 94.2497 9.12915 95.2058 9.71514C96.1619 10.3011 96.9176 11.0722 97.4727 12.0283C98.0587 12.9844 98.3517 14.0484 98.3517 15.2204V39.8786C98.3517 41.0815 98.0741 42.1609 97.519 43.117C96.9638 44.0731 96.1928 44.8288 95.2058 45.3839C94.2497 45.9699 93.1857 46.2629 92.0137 46.2629H75.5903ZM77.7184 29.6082H91.7361C91.8903 29.6082 92.0137 29.562 92.1062 29.4695C92.2296 29.3461 92.2913 29.2073 92.2913 29.0531V15.4518C92.2913 15.2976 92.2296 15.1742 92.1062 15.0817C92.0137 14.9583 91.8903 14.8966 91.7361 14.8966H77.7184C77.5642 14.8966 77.4254 14.9583 77.302 15.0817C77.2095 15.1742 77.1633 15.2976 77.1633 15.4518V29.0531C77.1633 29.2073 77.2095 29.3461 77.302 29.4695C77.4254 29.562 77.5642 29.6082 77.7184 29.6082ZM100.416 35.6687V8.83615H106.476V35.6687H100.416ZM100.416 6.15289V0.0461742H106.476V6.15289H100.416ZM125.645 35.6687C124.473 35.6687 123.409 35.3757 122.453 34.7897C121.497 34.2037 120.726 33.4327 120.14 32.4766C119.554 31.5205 119.261 30.4564 119.261 29.2844V-8.81897e-05H125.368V29.0531C125.368 29.2073 125.414 29.3461 125.506 29.4695C125.63 29.562 125.768 29.6082 125.923 29.6082H131.058V35.6687H125.645ZM138.093 35.6687C136.921 35.6687 135.857 35.3757 134.901 34.7897C133.945 34.2037 133.174 33.4327 132.588 32.4766C132.002 31.5205 131.709 30.4564 131.709 29.2844V15.2204C131.709 14.0484 132.002 12.9844 132.588 12.0283C133.174 11.0722 133.945 10.3011 134.901 9.71514C135.857 9.12915 136.921 8.83615 138.093 8.83615H152.574C153.746 8.83615 154.81 9.12915 155.766 9.71514C156.753 10.3011 157.524 11.0722 158.079 12.0283C158.665 12.9844 158.958 14.0484 158.958 15.2204V29.2844C158.958 30.4564 158.665 31.5205 158.079 32.4766C157.524 33.4327 156.768 34.2037 155.812 34.7897C154.856 35.3757 153.777 35.6687 152.574 35.6687H138.093ZM138.325 29.6082H152.342C152.497 29.6082 152.62 29.562 152.713 29.4695C152.836 29.3461 152.898 29.2073 152.898 29.0531V15.4518C152.898 15.2976 152.836 15.1742 152.713 15.0817C152.62 14.9583 152.497 14.8966 152.342 14.8966H138.325C138.171 14.8966 138.032 14.9583 137.908 15.0817C137.816 15.1742 137.77 15.2976 137.77 15.4518V29.0531C137.77 29.2073 137.816 29.3461 137.908 29.4695C138.032 29.562 138.171 29.6082 138.325 29.6082ZM164.99 46.2629V40.1562H181.136C181.29 40.1562 181.413 40.0945 181.506 39.9712C181.629 39.8786 181.691 39.7553 181.691 39.6011V35.6687H166.887C165.746 35.6687 164.682 35.3757 163.695 34.7897C162.739 34.2037 161.967 33.4327 161.381 32.4766C160.795 31.5205 160.502 30.4564 160.502 29.2844V15.2204C160.502 14.0484 160.795 12.9844 161.381 12.0283C161.967 11.0722 162.739 10.3011 163.695 9.71514C164.682 9.12915 165.746 8.83615 166.887 8.83615H181.413C182.585 8.83615 183.649 9.12915 184.606 9.71514C185.562 10.3011 186.317 11.0722 186.872 12.0283C187.458 12.9844 187.751 14.0484 187.751 15.2204V39.8786C187.751 41.0815 187.474 42.1609 186.919 43.117C186.363 44.0731 185.592 44.8288 184.606 45.3839C183.649 45.9699 182.585 46.2629 181.413 46.2629H164.99ZM167.118 29.6082H181.136C181.29 29.6082 181.413 29.562 181.506 29.4695C181.629 29.3461 181.691 29.2073 181.691 29.0531V15.4518C181.691 15.2976 181.629 15.1742 181.506 15.0817C181.413 14.9583 181.29 14.8966 181.136 14.8966H167.118C166.964 14.8966 166.825 14.9583 166.702 15.0817C166.609 15.1742 166.563 15.2976 166.563 15.4518V29.0531C166.563 29.2073 166.609 29.3461 166.702 29.4695C166.825 29.562 166.964 29.6082 167.118 29.6082ZM189.816 35.6687V8.83615H195.876V35.6687H189.816ZM189.816 6.15289V0.0461742H195.876V6.15289H189.816Z" fill="#AEAEAE"/>
</svg>
