<svg width="320" height="42" viewBox="0 0 320 42" fill="none" xmlns="http://www.w3.org/2000/svg">
<path d="M0 22.0312V15.3281L23.8594 5.20312V12.6094L8.20312 18.5156V18.8438L23.8594 24.75V32.1562L0 22.0312ZM72.9375 18.5625C72.9375 29.7656 65.9062 36 56.8125 36C47.6719 36 40.6875 29.7188 40.6875 18.5625C40.6875 7.35938 47.6719 1.125 56.8125 1.125C65.9062 1.125 72.9375 7.35938 72.9375 18.5625ZM64.7812 18.5625C64.7812 11.8125 61.7812 8.15625 56.8125 8.15625C51.8438 8.15625 48.8438 11.8125 48.8438 18.5625C48.8438 25.3125 51.8438 28.9688 56.8125 28.9688C61.7812 28.9688 64.7812 25.3125 64.7812 18.5625ZM106.453 1.59375V35.5312H99.6562L85.875 15.6094H85.6406V35.5312H77.6719V1.59375H84.5625L98.2031 21.5156H98.4844V1.59375H106.453ZM111.609 35.5312V1.59375H135.094V8.10938H119.578V15.2812H133.875V21.7969H119.578V29.0156H135.141V35.5312H111.609ZM160.078 35.5312V41.3438H137.531V35.5312H160.078ZM162.562 35.5312V1.59375H170.531V29.0156H184.781V35.5312H162.562ZM196.922 1.59375V35.5312H188.953V1.59375H196.922ZM230.859 1.59375V35.5312H224.062L210.281 15.6094H210.047V35.5312H202.078V1.59375H208.969L222.609 21.5156H222.891V1.59375H230.859ZM236.016 35.5312V1.59375H259.5V8.10938H243.984V15.2812H258.281V21.7969H243.984V29.0156H259.547V35.5312H236.016ZM319.031 25.2188L295.172 35.3438V27.9375L310.781 22.0312V21.7031L295.172 15.7969V8.39062L319.031 18.5156V25.2188Z" fill="#1DBFE0"/>
<path d="M290.812 0L279.891 40.6406H273.141L284.062 0H290.812Z" fill="#636363"/>
</svg>
