<svg width="275" height="36" viewBox="0 0 275 36" fill="none" xmlns="http://www.w3.org/2000/svg">
<path d="M5.35175e-05 18.9323V13.1721L20.5031 4.47142V10.8358L7.04922 15.9112V16.1932L20.5031 21.2686V27.633L5.35175e-05 18.9323ZM62.6772 15.9515C62.6772 25.5786 56.6351 30.936 48.8206 30.936C40.9658 30.936 34.9639 25.5384 34.9639 15.9515C34.9639 6.32435 40.9658 0.966978 48.8206 0.966978C56.6351 0.966978 62.6772 6.32435 62.6772 15.9515ZM55.6683 15.9515C55.6683 10.151 53.0904 7.00912 48.8206 7.00912C44.5508 7.00912 41.9728 10.151 41.9728 15.9515C41.9728 21.752 44.5508 24.8939 48.8206 24.8939C53.0904 24.8939 55.6683 21.752 55.6683 15.9515ZM91.4781 1.36979V30.5332H85.6374L73.7948 13.4138H73.5934V30.5332H66.7456V1.36979H72.6669L84.3887 18.4892H84.6304V1.36979H91.4781ZM95.909 30.5332V1.36979H116.09V6.96884H102.757V13.1318H115.042V18.7309H102.757V24.9341H116.13V30.5332H95.909ZM137.56 30.5332V35.528H118.184V30.5332H137.56ZM139.694 30.5332V1.36979H146.542V24.9341H158.788V30.5332H139.694ZM169.22 1.36979V30.5332H162.373V1.36979H169.22ZM198.384 1.36979V30.5332H192.543L180.7 13.4138H180.499V30.5332H173.651V1.36979H179.573L191.294 18.4892H191.536V1.36979H198.384ZM202.815 30.5332V1.36979H222.995V6.96884H209.662V13.1318H221.948V18.7309H209.662V24.9341H223.036V30.5332H202.815ZM274.152 21.6714L253.649 30.3721V24.0077L267.063 18.9323V18.6503L253.649 13.5749V7.21053L274.152 15.9112V21.6714Z" fill="#1DBFE0"/>
<path d="M249.903 0.000235066L240.518 34.9238H234.717L244.103 0.000235066H249.903Z" fill="#636363"/>
</svg>
