<svg width="25" height="25" viewBox="0 0 25 25" fill="none" xmlns="http://www.w3.org/2000/svg">
<path d="M17.7085 3.12466C17.9821 2.85108 18.3069 2.63406 18.6643 2.48599C19.0218 2.33793 19.4049 2.26172 19.7918 2.26172C20.1787 2.26172 20.5619 2.33793 20.9193 2.48599C21.2768 2.63406 21.6016 2.85108 21.8752 3.12466C22.1487 3.39825 22.3658 3.72305 22.5138 4.08051C22.6619 4.43796 22.7381 4.82109 22.7381 5.208C22.7381 5.59491 22.6619 5.97803 22.5138 6.33549C22.3658 6.69295 22.1487 7.01774 21.8752 7.29133L7.81266 21.3538L2.0835 22.9163L3.646 17.1872L17.7085 3.12466Z" stroke="white" stroke-width="2.14" stroke-linecap="round" stroke-linejoin="round"/>
</svg>
