<svg width="22" height="22" viewBox="0 0 22 22" fill="none" xmlns="http://www.w3.org/2000/svg">
<path fill-rule="evenodd" clip-rule="evenodd" d="M1.0625 10.9792C1.06232 14.6809 3.12391 18.0746 6.40914 19.7805C9.69436 21.4864 13.6562 21.2206 16.6841 19.091L20.8958 19.4792V10.9792C20.8958 5.50234 16.456 1.0625 10.9792 1.0625C5.50234 1.0625 1.0625 5.50234 1.0625 10.9792Z" stroke="#B2B2B2" stroke-width="2.125" stroke-linecap="round" stroke-linejoin="round"/>
<path d="M6.729 12.751C6.1422 12.751 5.6665 13.2267 5.6665 13.8135C5.6665 14.4003 6.1422 14.876 6.729 14.876V13.8135V12.751ZM12.3957 14.876C12.9825 14.876 13.4582 14.4003 13.4582 13.8135C13.4582 13.2267 12.9825 12.751 12.3957 12.751V13.8135V14.876ZM6.729 8.50098C6.1422 8.50098 5.6665 8.97667 5.6665 9.56348C5.6665 10.1503 6.1422 10.626 6.729 10.626V9.56348V8.50098ZM15.229 10.626C15.8158 10.626 16.2915 10.1503 16.2915 9.56348C16.2915 8.97667 15.8158 8.50098 15.229 8.50098V9.56348V10.626ZM6.729 13.8135V14.876H12.3957V13.8135V12.751H6.729V13.8135ZM6.729 9.56348V10.626H15.229V9.56348V8.50098H6.729V9.56348Z" fill="#B2B2B2"/>
</svg>
