<svg width="34" height="34" viewBox="0 0 34 34" fill="none" xmlns="http://www.w3.org/2000/svg">
<path fill-rule="evenodd" clip-rule="evenodd" d="M22.9031 13.459H11.0966C10.4448 13.459 9.9165 13.9873 9.9165 14.6391V24.084C9.9165 26.04 11.5022 27.6257 13.4582 27.6257H20.5415C21.4808 27.6257 22.3816 27.2525 23.0458 26.5883C23.71 25.9241 24.0832 25.0233 24.0832 24.084V14.6391C24.0832 13.9873 23.5548 13.459 22.9031 13.459Z" stroke="#828282" stroke-width="2.14" stroke-linecap="round" stroke-linejoin="round"/>
<path d="M15.7083 18.1804C15.7083 17.5895 15.2292 17.1104 14.6383 17.1104C14.0473 17.1104 13.5683 17.5895 13.5683 18.1804H14.6383H15.7083ZM13.5683 22.9022C13.5683 23.4931 14.0473 23.9722 14.6383 23.9722C15.2292 23.9722 15.7083 23.4931 15.7083 22.9022H14.6383H13.5683ZM20.4314 18.1804C20.4314 17.5895 19.9524 17.1104 19.3614 17.1104C18.7705 17.1104 18.2914 17.5895 18.2914 18.1804H19.3614H20.4314ZM18.2914 22.9022C18.2914 23.4931 18.7705 23.9722 19.3614 23.9722C19.9524 23.9722 20.4314 23.4931 20.4314 22.9022H19.3614H18.2914ZM19.496 8.86199C20.0869 8.86199 20.566 8.38294 20.566 7.79199C20.566 7.20105 20.0869 6.72199 19.496 6.72199V7.79199V8.86199ZM14.7743 6.72199C14.1833 6.72199 13.7043 7.20105 13.7043 7.79199C13.7043 8.38294 14.1833 8.86199 14.7743 8.86199V7.79199V6.72199ZM24.0832 11.6953C24.6741 11.6953 25.1532 11.2163 25.1532 10.6253C25.1532 10.0344 24.6741 9.55533 24.0832 9.55533V10.6253V11.6953ZM9.9165 9.55533C9.32556 9.55533 8.8465 10.0344 8.8465 10.6253C8.8465 11.2163 9.32556 11.6953 9.9165 11.6953V10.6253V9.55533ZM14.6383 18.1804H13.5683V22.9022H14.6383H15.7083V18.1804H14.6383ZM19.3614 18.1804H18.2914V22.9022H19.3614H20.4314V18.1804H19.3614ZM19.496 7.79199V6.72199H14.7743V7.79199V8.86199H19.496V7.79199ZM24.0832 10.6253V9.55533H9.9165V10.6253V11.6953H24.0832V10.6253Z" fill="#828282"/>
</svg>
