<svg width="34" height="34" viewBox="0 0 34 34" fill="none" xmlns="http://www.w3.org/2000/svg">
<path d="M18.131 11.2793C18.5006 10.8182 18.4264 10.1448 17.9653 9.77524C17.5041 9.40567 16.8307 9.47988 16.4612 9.941L17.2961 10.6102L18.131 11.2793ZM8.94058 21.0354L9.75097 21.7341C9.75933 21.7244 9.76751 21.7146 9.77551 21.7046L8.94058 21.0354ZM8.69833 21.6276L7.6306 21.558C7.63016 21.5647 7.62979 21.5714 7.62948 21.5781L8.69833 21.6276ZM8.5 25.9102L7.43115 25.8607C7.42868 25.9138 7.43019 25.967 7.43565 26.02L8.5 25.9102ZM9.61492 26.8834L9.6499 27.9529C9.72126 27.9505 9.7922 27.941 9.86167 27.9246L9.61492 26.8834ZM13.8649 25.8762L14.1117 26.9173C14.1172 26.916 14.1228 26.9147 14.1283 26.9133L13.8649 25.8762ZM14.4103 25.5305L15.2357 26.2114C15.2389 26.2076 15.242 26.2038 15.2451 26.1999L14.4103 25.5305ZM23.8018 15.5296C24.1714 15.0686 24.0974 14.3951 23.6364 14.0254C23.1754 13.6557 22.5019 13.7298 22.1322 14.1908L22.967 14.8602L23.8018 15.5296ZM16.4656 9.94072C16.0959 10.4017 16.1699 11.0752 16.6309 11.4449C17.0919 11.8146 17.7653 11.7406 18.135 11.2796L17.3003 10.6102L16.4656 9.94072ZM19.55 7.80517L20.3847 8.47463C20.3988 8.45709 20.4123 8.43912 20.4252 8.42073L19.55 7.80517ZM21.8578 7.35184L22.5423 6.52945C22.5082 6.50109 22.4724 6.47487 22.4351 6.45095L21.8578 7.35184ZM25.0268 9.98967L25.7841 9.23377C25.7609 9.2105 25.7366 9.18832 25.7114 9.16729L25.0268 9.98967ZM25.5042 11.1526L26.5741 11.1585L26.5741 11.1585L25.5042 11.1526ZM25.0141 12.3102L24.2651 11.546C24.2348 11.5757 24.2063 11.6072 24.1797 11.6403L25.0141 12.3102ZM22.1326 14.1903C21.7627 14.6512 21.8363 15.3246 22.2972 15.6946C22.758 16.0645 23.4315 15.9908 23.8014 15.53L22.967 14.8602L22.1326 14.1903ZM18.3585 10.4516C18.2709 9.86718 17.7262 9.46441 17.1418 9.55199C16.5573 9.63957 16.1546 10.1843 16.2421 10.7687L17.3003 10.6102L18.3585 10.4516ZM23.1111 15.9204C23.6966 15.8409 24.1068 15.3017 24.0273 14.7161C23.9477 14.1305 23.4085 13.7204 22.8229 13.7999L22.967 14.8602L23.1111 15.9204ZM17.2961 10.6102L16.4612 9.941L8.10565 20.3663L8.94058 21.0354L9.77551 21.7046L18.131 11.2793L17.2961 10.6102ZM8.94058 21.0354L8.13019 20.3367C7.83537 20.6787 7.65998 21.1074 7.6306 21.558L8.69833 21.6276L9.76607 21.6972C9.76518 21.7108 9.75988 21.7238 9.75097 21.7341L8.94058 21.0354ZM8.69833 21.6276L7.62948 21.5781L7.43115 25.8607L8.5 25.9102L9.56885 25.9597L9.76719 21.6771L8.69833 21.6276ZM8.5 25.9102L7.43565 26.02C7.55176 27.1457 8.5188 27.9899 9.6499 27.9529L9.61492 26.8834L9.57994 25.814C9.57637 25.8141 9.5751 25.8136 9.57454 25.8134C9.5734 25.813 9.57152 25.8121 9.56947 25.8103C9.56741 25.8085 9.56622 25.8067 9.56565 25.8057C9.56537 25.8051 9.56472 25.8039 9.56435 25.8004L8.5 25.9102ZM9.61492 26.8834L9.86167 27.9246L14.1117 26.9173L13.8649 25.8762L13.6182 24.835L9.36816 25.8423L9.61492 26.8834ZM13.8649 25.8762L14.1283 26.9133C14.5627 26.8029 14.9506 26.5571 15.2357 26.2114L14.4103 25.5305L13.5849 24.8496C13.5892 24.8444 13.595 24.8408 13.6015 24.8391L13.8649 25.8762ZM14.4103 25.5305L15.2451 26.1999L23.8018 15.5296L22.967 14.8602L22.1322 14.1908L13.5756 24.8611L14.4103 25.5305ZM17.3003 10.6102L18.135 11.2796L20.3847 8.47463L19.55 7.80517L18.7153 7.13572L16.4656 9.94072L17.3003 10.6102ZM19.55 7.80517L20.4252 8.42073C20.6193 8.14476 20.9964 8.07069 21.2804 8.25273L21.8578 7.35184L22.4351 6.45095C21.1861 5.65055 19.5282 5.97622 18.6748 7.18962L19.55 7.80517ZM21.8578 7.35184L21.1732 8.17423L24.3423 10.8121L25.0268 9.98967L25.7114 9.16729L22.5423 6.52945L21.8578 7.35184ZM25.0268 9.98967L24.2695 10.7456C24.3757 10.852 24.435 10.9964 24.4342 11.1467L25.5042 11.1526L26.5741 11.1585C26.5781 10.4372 26.2937 9.74426 25.7841 9.23377L25.0268 9.98967ZM25.5042 11.1526L24.4342 11.1467C24.4333 11.297 24.3725 11.4408 24.2651 11.546L25.0141 12.3102L25.763 13.0744C26.2782 12.5695 26.5702 11.8797 26.5741 11.1585L25.5042 11.1526ZM25.0141 12.3102L24.1797 11.6403L22.1326 14.1903L22.967 14.8602L23.8014 15.53L25.8485 12.98L25.0141 12.3102ZM17.3003 10.6102L16.2421 10.7687C16.7377 14.0755 19.7979 16.3706 23.1111 15.9204L22.967 14.8602L22.8229 13.7999C20.6695 14.0925 18.6806 12.6008 18.3585 10.4516L17.3003 10.6102Z" fill="#828282"/>
</svg>
