<svg width="22" height="15" viewBox="0 0 22 15" fill="none" xmlns="http://www.w3.org/2000/svg">
<path fill-rule="evenodd" clip-rule="evenodd" d="M20.8958 7.4375C20.8958 10.9579 16.456 13.8125 10.9792 13.8125C5.50233 13.8125 1.0625 10.9579 1.0625 7.4375C1.0625 3.91708 5.50233 1.0625 10.9792 1.0625C16.456 1.0625 20.8958 3.91708 20.8958 7.4375Z" stroke="#B2B2B2" stroke-width="2.125" stroke-linecap="round" stroke-linejoin="round"/>
<path fill-rule="evenodd" clip-rule="evenodd" d="M13.4583 7.43745C13.4889 8.34316 13.0232 9.19349 12.2435 9.65542C11.4639 10.1173 10.4944 10.1173 9.71471 9.65542C8.93505 9.19349 8.46933 8.34316 8.49996 7.43745C8.46933 6.53174 8.93505 5.68142 9.71471 5.21949C10.4944 4.75757 11.4639 4.75757 12.2435 5.21949C13.0232 5.68142 13.4889 6.53174 13.4583 7.43745V7.43745Z" stroke="#B2B2B2" stroke-width="2.125" stroke-linecap="round" stroke-linejoin="round"/>
</svg>
