<svg width="21" height="28" viewBox="0 0 21 28" fill="none" xmlns="http://www.w3.org/2000/svg">
<g clip-path="url(#clip0_754_510)">
<path d="M9.25228 4.20565C9.25228 4.6702 9.62887 5.04679 10.0934 5.04679C10.558 5.04679 10.9346 4.6702 10.9346 4.20565C10.9346 3.7411 10.558 3.3645 10.0934 3.3645C9.62887 3.3645 9.25228 3.7411 9.25228 4.20565Z" stroke="#999999" stroke-width="1.68229" stroke-linecap="round" stroke-linejoin="round"/>
<path d="M9.25228 13.879C9.25228 14.3435 9.62887 14.7201 10.0934 14.7201C10.558 14.7201 10.9346 14.3435 10.9346 13.879C10.9346 13.4144 10.558 13.0378 10.0934 13.0378C9.62887 13.0378 9.25228 13.4144 9.25228 13.879Z" stroke="#999999" stroke-width="1.68229" stroke-linecap="round" stroke-linejoin="round"/>
<path d="M9.25228 23.5521C9.25228 24.0166 9.62887 24.3932 10.0934 24.3932C10.558 24.3932 10.9346 24.0166 10.9346 23.5521C10.9346 23.0875 10.558 22.7109 10.0934 22.7109C9.62887 22.7109 9.25228 23.0875 9.25228 23.5521Z" stroke="#999999" stroke-width="1.68229" stroke-linecap="round" stroke-linejoin="round"/>
</g>
<defs>
<clipPath id="clip0_754_510">
<rect width="27.7578" height="20.1875" fill="white" transform="translate(20.1875) rotate(90)"/>
</clipPath>
</defs>
</svg>
