<svg width="233" height="55" viewBox="0 0 233 55" fill="none" xmlns="http://www.w3.org/2000/svg">
<path d="M-1.14366e-06 42.405V10.505H39.545C40.975 10.505 42.2583 10.8533 43.395 11.55C44.5317 12.2467 45.43 13.1633 46.09 14.3C46.7867 15.4367 47.135 16.7017 47.135 18.095V42.405H39.985V18.37C39.985 18.1867 39.9117 18.04 39.765 17.93C39.6183 17.7833 39.4533 17.71 39.27 17.71H27.885C27.7017 17.71 27.5367 17.7833 27.39 17.93C27.28 18.04 27.225 18.1867 27.225 18.37V42.405H19.965V18.37C19.965 18.1867 19.8917 18.04 19.745 17.93C19.635 17.7833 19.4883 17.71 19.305 17.71H7.865C7.68167 17.71 7.51667 17.7833 7.37 17.93C7.26 18.04 7.205 18.1867 7.205 18.37V42.405H-1.14366e-06ZM57.8896 42.405C56.4963 42.405 55.2313 42.0567 54.0946 41.36C52.958 40.6633 52.0413 39.7467 51.3446 38.61C50.648 37.4733 50.2996 36.2083 50.2996 34.815V18.095C50.2996 16.7017 50.648 15.4367 51.3446 14.3C52.0413 13.1633 52.958 12.2467 54.0946 11.55C55.2313 10.8533 56.4963 10.505 57.8896 10.505H75.1046C76.498 10.505 77.763 10.8533 78.8997 11.55C80.073 12.2467 80.9897 13.1633 81.6497 14.3C82.3463 15.4367 82.6947 16.7017 82.6947 18.095V34.815C82.6947 36.2083 82.3463 37.4733 81.6497 38.61C80.9897 39.7467 80.0913 40.6633 78.9546 41.36C77.818 42.0567 76.5346 42.405 75.1046 42.405H57.8896ZM58.1646 35.2H74.8296C75.013 35.2 75.1596 35.145 75.2696 35.035C75.4163 34.8883 75.4896 34.7233 75.4896 34.54V18.37C75.4896 18.1867 75.4163 18.04 75.2696 17.93C75.1596 17.7833 75.013 17.71 74.8296 17.71H58.1646C57.9813 17.71 57.8163 17.7833 57.6696 17.93C57.5596 18.04 57.5046 18.1867 57.5046 18.37V34.54C57.5046 34.7233 57.5596 34.8883 57.6696 35.035C57.8163 35.145 57.9813 35.2 58.1646 35.2ZM89.8657 55V47.74H109.061C109.244 47.74 109.391 47.6667 109.501 47.52C109.647 47.41 109.721 47.2633 109.721 47.08V42.405H92.1207C90.764 42.405 89.499 42.0567 88.3257 41.36C87.189 40.6633 86.2724 39.7467 85.5757 38.61C84.879 37.4733 84.5307 36.2083 84.5307 34.815V18.095C84.5307 16.7017 84.879 15.4367 85.5757 14.3C86.2724 13.1633 87.189 12.2467 88.3257 11.55C89.499 10.8533 90.764 10.505 92.1207 10.505H109.391C110.784 10.505 112.049 10.8533 113.186 11.55C114.322 12.2467 115.221 13.1633 115.881 14.3C116.577 15.4367 116.926 16.7017 116.926 18.095V47.41C116.926 48.84 116.596 50.1233 115.936 51.26C115.276 52.3967 114.359 53.295 113.186 53.955C112.049 54.6517 110.784 55 109.391 55H89.8657ZM92.3957 35.2H109.061C109.244 35.2 109.391 35.145 109.501 35.035C109.647 34.8883 109.721 34.7233 109.721 34.54V18.37C109.721 18.1867 109.647 18.04 109.501 17.93C109.391 17.7833 109.244 17.71 109.061 17.71H92.3957C92.2124 17.71 92.0474 17.7833 91.9007 17.93C91.7907 18.04 91.7357 18.1867 91.7357 18.37V34.54C91.7357 34.7233 91.7907 34.8883 91.9007 35.035C92.0474 35.145 92.2124 35.2 92.3957 35.2ZM119.38 42.405V10.505H126.585V42.405H119.38ZM119.38 7.315V0.0550004H126.585V7.315H119.38ZM149.374 42.405C147.98 42.405 146.715 42.0567 145.579 41.36C144.442 40.6633 143.525 39.7467 142.829 38.61C142.132 37.4733 141.784 36.2083 141.784 34.815V1.07288e-06H149.044V34.54C149.044 34.7233 149.099 34.8883 149.209 35.035C149.355 35.145 149.52 35.2 149.704 35.2H155.809V42.405H149.374ZM164.173 42.405C162.78 42.405 161.515 42.0567 160.378 41.36C159.241 40.6633 158.325 39.7467 157.628 38.61C156.931 37.4733 156.583 36.2083 156.583 34.815V18.095C156.583 16.7017 156.931 15.4367 157.628 14.3C158.325 13.1633 159.241 12.2467 160.378 11.55C161.515 10.8533 162.78 10.505 164.173 10.505H181.388C182.781 10.505 184.046 10.8533 185.183 11.55C186.356 12.2467 187.273 13.1633 187.933 14.3C188.63 15.4367 188.978 16.7017 188.978 18.095V34.815C188.978 36.2083 188.63 37.4733 187.933 38.61C187.273 39.7467 186.375 40.6633 185.238 41.36C184.101 42.0567 182.818 42.405 181.388 42.405H164.173ZM164.448 35.2H181.113C181.296 35.2 181.443 35.145 181.553 35.035C181.7 34.8883 181.773 34.7233 181.773 34.54V18.37C181.773 18.1867 181.7 18.04 181.553 17.93C181.443 17.7833 181.296 17.71 181.113 17.71H164.448C164.265 17.71 164.1 17.7833 163.953 17.93C163.843 18.04 163.788 18.1867 163.788 18.37V34.54C163.788 34.7233 163.843 34.8883 163.953 35.035C164.1 35.145 164.265 35.2 164.448 35.2ZM196.149 55V47.74H215.344C215.527 47.74 215.674 47.6667 215.784 47.52C215.931 47.41 216.004 47.2633 216.004 47.08V42.405H198.404C197.047 42.405 195.782 42.0567 194.609 41.36C193.472 40.6633 192.556 39.7467 191.859 38.61C191.162 37.4733 190.814 36.2083 190.814 34.815V18.095C190.814 16.7017 191.162 15.4367 191.859 14.3C192.556 13.1633 193.472 12.2467 194.609 11.55C195.782 10.8533 197.047 10.505 198.404 10.505H215.674C217.067 10.505 218.332 10.8533 219.469 11.55C220.606 12.2467 221.504 13.1633 222.164 14.3C222.861 15.4367 223.209 16.7017 223.209 18.095V47.41C223.209 48.84 222.879 50.1233 222.219 51.26C221.559 52.3967 220.642 53.295 219.469 53.955C218.332 54.6517 217.067 55 215.674 55H196.149ZM198.679 35.2H215.344C215.527 35.2 215.674 35.145 215.784 35.035C215.931 34.8883 216.004 34.7233 216.004 34.54V18.37C216.004 18.1867 215.931 18.04 215.784 17.93C215.674 17.7833 215.527 17.71 215.344 17.71H198.679C198.496 17.71 198.331 17.7833 198.184 17.93C198.074 18.04 198.019 18.1867 198.019 18.37V34.54C198.019 34.7233 198.074 34.8883 198.184 35.035C198.331 35.145 198.496 35.2 198.679 35.2ZM225.663 42.405V10.505H232.868V42.405H225.663ZM225.663 7.315V0.0550004H232.868V7.315H225.663Z" fill="#E2A0A0"/>
</svg>
